<svg width="18" height="16" viewBox="0 0 18 16" fill="none" xmlns="http://www.w3.org/2000/svg">
<path d="M8.57812 1.65234L8.96484 2.07422L9.38672 1.6875C10.5469 0.527344 12.1992 0 13.7812 0.28125C16.207 0.667969 18 2.77734 18 5.23828V5.41406C18 6.89062 17.3672 8.29688 16.3125 9.28125L9.94922 15.2227C9.70312 15.4688 9.35156 15.5742 9 15.5742C8.61328 15.5742 8.26172 15.4688 8.01562 15.2227L1.65234 9.28125C0.597656 8.29688 0 6.89062 0 5.41406V5.23828C0 2.77734 1.75781 0.667969 4.18359 0.28125C5.76562 0 7.41797 0.527344 8.57812 1.65234C8.57812 1.6875 8.54297 1.65234 8.57812 1.65234ZM8.96484 4.46484L7.38281 2.84766C6.60938 2.10938 5.51953 1.75781 4.46484 1.93359C2.84766 2.21484 1.6875 3.58594 1.6875 5.23828V5.41406C1.6875 6.43359 2.07422 7.38281 2.8125 8.05078L9 13.8164L15.1523 8.05078C15.8906 7.38281 16.3125 6.43359 16.3125 5.41406V5.23828C16.3125 3.58594 15.1172 2.21484 13.5 1.93359C12.4453 1.75781 11.3555 2.10938 10.582 2.84766L8.96484 4.46484Z" fill="#FF0000"/>
</svg>
